PathFileType	4	(X/Y/Z)	s10c0403.trc
DataRate	CameraRate	NumFrames	NumMarkers	Units	OrigDataRate	OrigDataStartFrame	OrigNumFrames
200	200	6	49	mm	200	0	2000
Frame#	Time	racr			lacr			c7			jug			rlel			rdr			llel			ldr			s2			lic			ric			lasi			rasi			rpsi			lpsi			rgt			lgt			rth1			rth2			rth3			rth4			rlfc			rmfc			rsh1			rsh2			rsh3			rsh4			rlmal			rmmal			rcal			rtoe			rmt5			lth1			lth2			lth4			lth3			llfc			lmfc			llmal			lcal			lmt5			lsh1			lsh2			lsh3			lsh4			ltoe			SBIKE			LBIKE			RBIKE			
		X1	Y1	Z1	X2	Y2	Z2	X3	Y3	Z3	X4	Y4	Z4	X5	Y5	Z5	X6	Y6	Z6	X7	Y7	Z7	X8	Y8	Z8	X9	Y9	Z9	X10	Y10	Z10	X11	Y11	Z11	X12	Y12	Z12	X13	Y13	Z13	X14	Y14	Z14	X15	Y15	Z15	X16	Y16	Z16	X17	Y17	Z17	X18	Y18	Z18	X19	Y19	Z19	X20	Y20	Z20	X21	Y21	Z21	X22	Y22	Z22	X23	Y23	Z23	X24	Y24	Z24	X25	Y25	Z25	X26	Y26	Z26	X27	Y27	Z27	X28	Y28	Z28	X29	Y29	Z29	X30	Y30	Z30	X31	Y31	Z31	X32	Y32	Z32	X33	Y33	Z33	X34	Y34	Z34	X35	Y35	Z35	X36	Y36	Z36	X37	Y37	Z37	X38	Y38	Z38	X39	Y39	Z39	X40	Y40	Z40	X41	Y41	Z41	X42	Y42	Z42	X43	Y43	Z43	X44	Y44	Z44	X45	Y45	Z45	X46	Y46	Z46	X47	Y47	Z47	X48	Y48	Z48	X49	Y49	Z49	
0	0.0000	380.118415	1332.330701	-46.958414	383.227144	1340.405863	-388.021343	362.719063	1382.547702	-218.388523	393.656129	1244.017289	-214.038308	473.506595	1084.358244	14.521882	624.483903	913.802111	-30.415059	464.689012	1080.849886	-469.455812	621.421582	912.005401	-431.186039	-109.064183	1101.593010	-205.790165	55.550379	1097.595371	-362.542566	79.486191	1098.784630	-86.493129	74.610183	1010.869365	-339.791553	74.133507	1018.587417	-84.694079	-57.811790	1145.160513	-154.630865	-53.239155	1150.487543	-265.343854	-43.710183	1013.857633	-11.553345	-64.241184	982.643042	-404.316854	53.531094	919.542966	7.483005	140.834540	912.804114	-8.165047	211.352770	864.470831	-15.144093	150.865211	948.714539	-18.986933	319.019221	823.291305	-37.088123	310.628525	814.049715	-154.795502	268.146184	718.869613	-14.973054	269.216474	631.292979	-31.060692	226.859857	555.985068	-40.224031	298.409273	628.407427	-56.856316	199.504463	459.380068	-61.226889	221.962668	479.029168	-140.978777	147.737995	434.447375	-108.728697	390.073819	423.061341	-105.457569	310.542792	393.215085	-42.696649	4.562134	868.505141	-427.963794	79.096827	824.005496	-421.295347	104.840674	848.732156	-413.284858	121.626227	745.838788	-418.965803	194.586522	661.151256	-406.384439	202.312198	654.025723	-287.092033	-50.907068	379.585108	-378.433859	-111.209970	377.345961	-332.890645	10.600374	251.680889	-399.632948	101.607538	579.671969	-427.106361	75.740576	497.652367	-409.538207	7.397988	440.236669	-400.179169	100.790822	484.245083	-384.105695	91.735453	242.903238	-349.651665	-217.640397	832.188459	-214.346240	-104.301842	80.432097	-418.336881	-103.562653	81.468928	-18.028398	
1	0.0050	380.086621	1332.341555	-46.961873	383.249488	1340.367179	-387.977923	362.700107	1382.536582	-218.352563	393.633442	1244.025143	-213.985453	473.547371	1084.385254	14.492692	624.522779	913.802226	-30.417303	464.664752	1080.809302	-469.474380	621.413718	911.984775	-431.204542	-109.080490	1101.579128	-205.818475	55.567525	1097.612728	-362.535110	79.440706	1098.769229	-86.499642	73.779676	1009.930702	-339.891555	74.105197	1018.589624	-84.690815	-57.838667	1145.165774	-154.666521	-53.272949	1150.484728	-265.346238	-43.710278	1013.879981	-11.570126	-64.203474	982.643145	-404.303267	53.485273	919.579291	7.485934	140.824488	912.880962	-8.123752	211.337968	864.582195	-15.112572	150.846738	948.811927	-18.955156	319.045245	823.455042	-37.055109	310.680870	814.263059	-154.747237	268.111550	719.097465	-14.950693	269.188959	631.429954	-31.037120	226.803787	556.206664	-40.191721	298.396534	628.567305	-56.827701	199.448894	459.583308	-61.229002	221.824359	479.224470	-140.912841	147.630276	434.553754	-108.670973	390.012377	423.264124	-105.469441	310.454692	393.408041	-42.698964	4.545601	868.486301	-427.957402	79.062873	823.954095	-421.278492	104.806231	848.675270	-413.265481	121.555188	745.778130	-418.902987	194.499983	661.039206	-406.282021	202.165523	653.922544	-287.022249	-50.900414	379.377964	-378.421001	-111.208120	377.129743	-332.890979	10.676452	251.533575	-399.644463	101.597783	579.502846	-427.045254	75.742836	497.492201	-409.472147	7.407648	440.023704	-400.153880	100.792947	484.138177	-384.057095	91.800420	242.775474	-349.667299	-217.633296	832.176431	-214.327865	-104.308880	80.448613	-418.364476	-103.582501	81.470526	-18.042208	
2	0.0100	380.072593	1332.352813	-46.952829	383.254065	1340.344406	-387.920622	362.694096	1382.520623	-218.302431	393.624296	1244.034302	-213.944638	473.576563	1084.412057	14.475544	624.554715	913.818035	-30.397127	464.650341	1080.796531	-469.498957	621.420101	911.989964	-431.204185	-109.327911	1101.571194	-206.333137	55.590001	1097.627440	-362.514274	79.408037	1098.767760	-86.500769	73.831262	1009.976081	-339.881739	74.097540	1018.601679	-84.680721	-57.860779	1145.148600	-154.654167	-53.280888	1150.470716	-265.337850	-43.726496	1013.866620	-11.568185	-64.203474	982.643145	-404.303267	53.502540	919.632458	7.467875	140.823350	913.018783	-8.083125	211.377404	864.691001	-15.059609	150.833846	948.907885	-18.911876	319.125187	823.664623	-37.000056	310.737870	814.461726	-154.728243	268.122532	719.256685	-14.917655	269.189963	631.580864	-30.987277	226.758768	556.431429	-40.160932	298.364131	628.754822	-56.762812	199.419645	459.787640	-61.223716	221.799496	479.433746	-140.897363	147.554814	434.732360	-108.655357	389.952106	423.410068	-105.476516	310.363140	393.628398	-42.692345	4.542946	868.451610	-427.944933	79.031172	823.902462	-421.238080	104.779821	848.603122	-413.247191	121.501243	745.706698	-418.830606	194.428493	660.924150	-406.164524	202.050254	653.813521	-286.947615	-50.871850	379.184692	-378.412524	-111.204433	376.906045	-332.882505	10.741352	251.382029	-399.648157	101.583519	579.340771	-426.994624	75.751961	497.304428	-409.402110	7.403750	439.817983	-400.114972	100.783352	483.992331	-383.958768	91.849294	242.611286	-349.643585	-217.640172	832.189554	-214.347312	-104.321580	80.412757	-418.341482	-103.570059	81.466113	-18.033381	
3	0.0150	380.106881	1332.369407	-46.915742	383.248932	1340.308362	-387.892006	362.849556	1382.672837	-218.423827	393.591792	1244.043824	-213.904809	473.685069	1084.337019	14.368450	624.587058	913.817062	-30.376262	464.677081	1080.871353	-469.422065	621.421896	911.988409	-431.193833	-109.339205	1101.558527	-206.324059	55.594985	1097.633104	-362.498698	79.407466	1098.883384	-86.453684	74.766533	1011.116144	-339.984917	74.116515	1018.614176	-84.646279	-57.827122	1145.120550	-154.645686	-53.262907	1150.453281	-265.331010	-44.516706	1013.878748	-11.989988	-64.189910	982.621734	-404.299385	53.521539	919.776403	7.534990	140.217805	912.921295	-8.305566	211.464457	864.853910	-14.978428	150.929531	948.888065	-18.926499	319.239028	823.864364	-36.890226	310.821690	814.686283	-154.685794	268.199641	719.400933	-14.871211	269.094834	631.604120	-31.481962	226.592593	556.782262	-40.061009	298.373854	628.960638	-56.622258	199.292425	460.106805	-61.130628	222.014229	479.865419	-140.669080	147.529939	434.947536	-108.646592	389.905505	423.553760	-105.451600	310.352612	393.817578	-42.682121	4.514930	868.388435	-427.906546	79.009939	823.834687	-421.187222	104.746855	848.726741	-413.378155	121.433647	745.630411	-418.768931	194.352343	660.827156	-406.068751	201.637131	653.746246	-286.655507	-50.845294	378.916829	-378.405896	-111.190920	376.675101	-332.898153	10.801345	251.224271	-399.637221	101.557727	579.170315	-426.930267	75.156616	496.041957	-409.844176	7.318858	439.795670	-399.948081	100.774353	483.867600	-383.901421	91.909849	242.463861	-349.656564	-217.630971	832.185170	-214.344087	-104.087116	81.932851	-417.401675	-103.546191	81.450963	-18.025145	
4	0.0200	380.113723	1332.361125	-46.869929	383.264243	1340.164642	-387.628761	362.785241	1382.642821	-218.221453	393.573491	1243.955501	-213.688794	473.774688	1084.420265	14.326860	624.062049	912.665451	-30.593911	464.591938	1080.007291	-469.041597	621.372337	911.899606	-431.034376	-109.510626	1100.600491	-206.174878	56.007055	1096.869500	-363.070478	79.443279	1098.819528	-86.339069	74.625253	1010.222576	-339.890157	74.133854	1018.534723	-84.383801	-57.489782	1144.914486	-155.203187	-53.170527	1150.637320	-265.186413	-44.247695	1013.967777	-11.660297	-64.186300	982.257224	-404.658258	53.585761	919.782536	7.603998	140.624137	913.337686	-7.926514	211.531998	865.024610	-14.904093	150.979099	948.991355	-18.940195	319.337080	824.056042	-36.802028	310.853117	814.977817	-154.616905	268.390646	719.668650	-14.707309	269.224989	631.759699	-31.243990	226.671408	557.087088	-39.877456	298.299385	629.184398	-56.323905	199.148504	459.629521	-61.334813	221.748489	479.273003	-140.830405	147.597896	435.346627	-108.325684	389.840468	423.661197	-105.466474	310.478028	394.058427	-42.512262	4.570894	867.751686	-427.896669	78.691898	822.885833	-420.870767	104.352987	847.696932	-413.029561	121.198783	744.691956	-418.563792	193.980016	659.634025	-405.539022	201.549162	653.605225	-286.526433	-51.152862	378.085746	-378.444657	-111.415474	375.788746	-332.889028	10.568490	250.163221	-399.745985	101.524454	578.228001	-426.887961	75.165424	495.801752	-409.656551	7.287253	438.666973	-399.900196	100.859257	484.040254	-384.173281	91.817451	241.607336	-349.801503	-217.946083	831.393228	-214.090331	-104.144342	80.592510	-418.347700	-103.939282	80.694069	-18.259418	
5	0.0250	380.128671	1332.394717	-46.823189	383.256446	1340.163267	-387.559914	362.788316	1382.626600	-218.137801	393.576536	1243.951971	-213.606157	473.847036	1084.457197	14.348328	623.981793	912.580937	-30.627038	464.587274	1079.920415	-468.989708	621.439258	911.913957	-431.012074	-109.550026	1100.431308	-206.133020	56.096212	1096.784885	-363.116835	79.520679	1098.807985	-86.242490	74.571660	1010.106286	-339.836707	74.177480	1018.553148	-84.327162	-57.448805	1144.930834	-155.166704	-53.189028	1150.643825	-265.095867	-44.225959	1013.971810	-11.579459	-64.207767	982.174036	-404.637485	53.652844	919.857464	7.636054	140.602690	913.455353	-7.869972	211.610528	865.177189	-14.808284	150.992581	949.108497	-18.895421	319.409267	824.260522	-36.698874	310.944778	815.128115	-154.587458	268.479009	719.858356	-14.645003	269.296759	632.000357	-31.166218	226.670335	557.265893	-39.827172	298.425551	629.400242	-56.276431	199.157787	459.817294	-61.315632	221.658429	479.433603	-140.795517	147.612323	435.622067	-108.289932	389.817695	423.822486	-105.416006	310.464020	394.247036	-42.449557	4.547180	867.627504	-427.868875	78.621534	822.691837	-420.780430	104.294391	847.518141	-412.956656	121.089439	744.466341	-418.395112	193.843125	659.409864	-405.354105	201.498147	653.485108	-286.387887	-51.154428	377.859987	-378.411639	-111.431028	375.499889	-332.891373	10.572207	249.821293	-399.684590	101.459233	577.970359	-426.753654	75.141882	495.620265	-409.557198	7.241879	438.357672	-399.832499	100.813087	483.800210	-383.992836	91.826759	241.362191	-349.755883	-218.001903	831.322357	-214.073499	-104.042234	80.564861	-418.372370	-103.913274	80.637927	-18.248459	
